Coordinates
version=1
nRows=14
nColumns=40
inDegrees=yes

Units are S.I. units (second, meters, Newtons, ...)
Angles are in degrees.

endheader
time	pelvis_tilt	pelvis_list	pelvis_rotation	pelvis_tx	pelvis_ty	pelvis_tz	hip_flexion_r	hip_adduction_r	hip_rotation_r	knee_angle_r	knee_angle_r_beta	ankle_angle_r	subtalar_angle_r	mtp_angle_r	hip_flexion_l	hip_adduction_l	hip_rotation_l	knee_angle_l	knee_angle_l_beta	ankle_angle_l	subtalar_angle_l	mtp_angle_l	lumbar_extension	lumbar_bending	lumbar_rotation	arm_flex_r	arm_add_r	arm_rot_r	elbow_flex_r	pro_sup_r	wrist_flex_r	wrist_dev_r	arm_flex_l	arm_add_l	arm_rot_l	elbow_flex_l	pro_sup_l	wrist_flex_l	wrist_dev_l
     36.81750000	     -4.04411616	     -4.97434020	     -1.66516406	      0.87621985	      0.93349969	      0.42142661	     31.06245818	     -3.93466259	     -7.03808482	     46.06243764	     46.06243764	      4.13329121	    -10.90871762	     -0.70654860	     11.11890136	     -5.30671964	     -9.88514290	     20.19875801	     20.19875801	     16.09869565	     -3.63202464	     -2.47021595	     -9.87972002	      3.93338681	     -0.97107403	     -4.77382471	    -14.42882406	      0.58083857	     38.92353932	     46.14312286	      0.00000000	      0.00000000	      9.56800903	    -16.49849842	     -3.46942237	     47.17444543	     46.04265778	      0.00000000	      0.00000000
     36.83071429	     -4.09664264	     -4.94200685	     -1.79541056	      0.87575234	      0.93331054	      0.42161376	     31.05733053	     -3.69355204	     -6.96769904	     42.19086442	     42.19086442	      3.82743309	     -9.54375524	     -1.64074234	     10.43751940	     -5.24253546	    -10.10371542	     19.65816599	     19.65816599	     16.13302785	     -3.43473855	     -3.12188515	     -9.83663674	      3.83640195	     -1.07236412	     -5.26729179	    -14.16921735	     -0.57206455	     34.78175144	     46.33630838	      0.00000000	      0.00000000	     10.54432836	    -16.75462578	     -3.21337461	     47.37184948	     46.06780809	      0.00000000	      0.00000000
     36.84392857	     -4.19982280	     -4.94821118	     -1.91178035	      0.87532990	      0.93292660	      0.42185077	     31.01404445	     -3.37471155	     -6.91497089	     38.24325517	     38.24325517	      3.88875267	     -7.91691328	     -1.26353947	      9.87183622	     -5.21545656	    -10.20793761	     19.25344980	     19.25344980	     16.39230702	     -3.31550258	     -3.23098810	     -9.76452344	      3.84022519	     -1.24233767	     -6.68646881	    -14.44189760	     -0.66482347	     33.85895320	     46.36406688	      0.00000000	      0.00000000	     11.27516868	    -16.93451505	     -3.34644188	     47.94362200	     46.09642152	      0.00000000	      0.00000000
     36.85714286	     -4.12208800	     -4.78289015	     -2.08013777	      0.87514942	      0.93268664	      0.42211067	     30.69833001	     -3.29806946	     -7.06927849	     34.28182698	     34.28182698	      3.93592009	     -5.60099499	     -1.11429787	      8.98401173	     -4.99528661	    -10.51986990	     18.65515915	     18.65515915	     16.57155705	     -3.01170061	     -3.54671774	     -9.90677335	      3.62414592	     -0.91150545	     -7.93836292	    -14.58099225	     -1.03980530	     31.85627477	     46.44987226	      0.00000000	      0.00000000	     12.29778372	    -16.85144814	     -3.45753153	     48.73975117	     46.13546185	      0.00000000	      0.00000000
     36.87035714	     -4.13716582	     -4.67873388	     -2.22994010	      0.87509101	      0.93220938	      0.42249461	     30.36126067	     -3.08241071	     -7.23537996	     30.25855830	     30.25855830	      3.81796052	     -3.45478996	     -0.77485703	      8.19964159	     -4.82163303	    -10.65251558	     18.03972049	     18.03972049	     16.47650655	     -3.05267579	     -4.44624287	     -9.88566633	      3.50118958	     -1.05851292	     -8.16316170	    -14.25829569	     -3.53601566	     28.28838269	     46.71667967	      0.00000000	      0.00000000	     12.89370834	    -16.98285384	     -3.68103821	     49.43795597	     46.22308128	      0.00000000	      0.00000000
     36.88357143	     -4.13893147	     -4.56432874	     -2.38988621	      0.87516737	      0.93166704	      0.42300478	     29.94763104	     -2.83499683	     -7.46697509	     26.34657295	     26.34657295	      3.63959550	     -1.29827860	      0.01433711	      7.44528175	     -4.66500091	    -10.87453420	     17.56887800	     17.56887800	     16.76268573	     -2.86100375	     -4.57274714	     -9.89995382	      3.40933701	     -0.99279549	     -9.43756768	    -14.53469565	     -3.70794572	     27.57389645	     46.74327604	      0.00000000	      0.00000000	     13.57894496	    -16.99724960	     -3.82456065	     50.11330057	     46.25523653	      0.00000000	      0.00000000
     36.89678571	     -4.07784712	     -4.38522513	     -2.57055255	      0.87554621	      0.93108618	      0.42360075	     29.47553589	     -2.67271947	     -7.86638212	     22.76904862	     22.76904862	      3.46949099	      1.13844735	      1.00503851	      6.53865899	     -4.43077268	    -11.16264445	     16.97663058	     16.97663058	     17.00281548	     -2.57133708	     -4.77638841	     -9.93453562	      3.23456624	     -0.79237067	    -10.61601674	    -14.73366496	     -3.93785523	     26.75424542	     46.78014350	      0.00000000	      0.00000000	     14.24152047	    -16.92710782	     -3.98595776	     50.92458832	     46.29065376	      0.00000000	      0.00000000
     36.91000000	     -3.98704386	     -4.16230613	     -2.77631904	      0.87611756	      0.93044345	      0.42435291	     29.02040776	     -2.56167230	     -8.42443776	     19.64473503	     19.64473503	      3.32704500	      3.63289269	      2.37988951	      5.54514963	     -4.14331749	    -11.49424943	     16.30156160	     16.30156160	     17.18829231	     -2.25982384	     -5.09192327	     -9.98363868	      3.01415400	     -0.55853660	    -11.64464450	    -14.84786723	     -4.29983440	     25.93953227	     46.82806571	      0.00000000	      0.00000000	     14.79235846	    -16.82625666	     -4.18230167	     51.87897792	     46.33121579	      0.00000000	      0.00000000
     36.92321429	     -4.06927880	     -3.93772758	     -2.96021075	      0.87674409	      0.92943625	      0.42523937	     28.80759717	     -2.38585423	     -8.77822158	     16.98553073	     16.98553073	      2.90450087	      5.29976329	      3.57040966	      4.80316350	     -3.86913896	    -11.75547201	     15.74383845	     15.74383845	     17.41514675	     -2.04053207	     -5.31365646	     -9.78115406	      2.79624562	     -0.50495019	    -12.55426179	    -14.94252456	     -4.51403374	     25.41899833	     46.85613692	      0.00000000	      0.00000000	     15.16343224	    -16.77115509	     -4.32265614	     52.59937807	     46.35904275	      0.00000000	      0.00000000
     36.93642857	     -3.81903643	     -3.75462117	     -3.12321393	      0.87780645	      0.92883785	      0.42616970	     28.32461268	     -2.29237201	     -9.56864409	     15.05636084	     15.05636084	      2.87119814	      7.33796848	      5.34989480	      3.54374131	     -3.60251093	    -12.06480251	     14.93981936	     14.93981936	     17.54313451	     -1.65362162	     -5.74079148	     -9.98675183	      2.64794393	     -0.25066916	    -13.46796237	    -15.11678064	     -5.03115533	     24.86924107	     46.90726643	      0.00000000	      0.00000000	     15.48545201	    -16.64309178	     -4.59629774	     53.89422281	     46.40878056	      0.00000000	      0.00000000
     36.94964286	     -3.77721175	     -3.59634662	     -3.27671661	      0.87886410	      0.92788702	      0.42731173	     28.08617609	     -2.12138338	    -10.11980540	     13.60266482	     13.60266482	      2.55388825	      8.39189632	      6.63866731	      2.59636590	     -3.38934206	    -12.29343505	     14.29156078	     14.29156078	     17.72653037	     -1.38329643	     -6.03355556	     -9.89197935	      2.52006802	     -0.16415843	    -14.20874576	    -15.21074508	     -5.40413570	     24.59722751	     46.93767736	      0.00000000	      0.00000000	     15.64719032	    -16.53356162	     -4.79259798	     54.87966369	     46.44355220	      0.00000000	      0.00000000
     36.96285714	     -3.64648596	     -3.42086246	     -3.39923287	      0.88017926	      0.92696416	      0.42854698	     27.87089646	     -2.04645687	    -10.68775206	     12.90243416	     12.90243416	      2.43546209	      9.13411640	      7.86768733	      1.51070529	     -3.15603664	    -12.54414806	     13.58534758	     13.58534758	     17.89116233	     -1.03881432	     -6.41088612	     -9.90597408	      2.41433944	     -0.08397663	    -14.89479989	    -15.30242043	     -5.96853578	     24.52072464	     46.97320424	      0.00000000	      0.00000000	     15.67263013	    -16.47038150	     -5.08451225	     56.20470340	     46.49227469	      0.00000000	      0.00000000
     36.97607143	     -3.70501856	     -3.27838332	     -3.47683821	      0.88144849	      0.92551393	      0.42996749	     27.97374598	     -1.95816119	    -10.99798474	     12.85969313	     12.85969313	      2.13352703	      8.98936197	      8.01264328	      0.97715972	     -3.04740915	    -12.63009761	     13.54995956	     13.54995956	     18.30080792	     -1.10997335	     -6.55765632	     -9.57449596	      2.30385343	     -0.25692954	    -15.12062022	    -15.36295703	     -6.00748094	     24.45593129	     46.97674777	      0.00000000	      0.00000000	     15.79703549	    -16.47928271	     -5.10414460	     56.33321271	     46.49694394	      0.00000000	      0.00000000
     36.98928571	     -3.57342003	     -3.18208646	     -3.49686642	      0.88324375	      0.92458411	      0.43144423	     27.57608381	     -1.85964861	    -11.41910055	     12.76332609	     12.76332609	      1.84587181	      8.89747854	      8.38963586	     -0.28073535	     -2.90784112	    -12.90832089	     12.54564452	     12.54564452	     18.33838668	     -0.33420109	     -6.99786104	     -9.59299898	      2.27778258	     -0.32571796	    -15.92065868	    -15.37199408	     -7.43344684	     25.30794638	     47.02347951	      0.00000000	      0.00000000	     14.98773636	    -16.46572415	     -5.78458635	     59.32289060	     46.60429401	      0.00000000	      0.00000000
